<?xml version="1.0" standalone="no"?>
<!DOCTYPE svg PUBLIC "-//W3C//DTD SVG 20010904//EN"
 "http://www.w3.org/TR/2001/REC-SVG-20010904/DTD/svg10.dtd">
<svg version="1.0" xmlns="http://www.w3.org/2000/svg"
 width="5000.000000pt" height="5000.000000pt" viewBox="0 0 5000.000000 5000.000000"
 preserveAspectRatio="xMidYMid meet">

<g transform="translate(0.000000,5000.000000) scale(0.100000,-0.100000)"
fill="#000000" stroke="none">
<path d="M21990 45570 c-748 -92 -1342 -629 -1499 -1355 -47 -216 -51 -441
-11 -661 10 -59 18 -110 16 -111 -2 -2 -144 -41 -317 -88 -1209 -324 -2253
-718 -3324 -1253 -1248 -623 -2356 -1350 -3445 -2260 -102 -85 -189 -158 -193
-162 -5 -4 24 -56 64 -116 39 -60 98 -163 130 -229 54 -114 129 -317 129 -351
0 -11 26 7 73 48 768 684 1771 1400 2725 1947 363 208 886 480 1217 634 77 36
179 83 227 105 180 84 571 248 843 354 635 247 1308 461 1973 627 l243 61 82
-87 c79 -83 241 -221 306 -259 17 -10 31 -24 31 -31 0 -10 -255 -728 -946
-2667 -35 -99 -66 -181 -69 -184 -2 -3 -37 0 -77 7 -140 22 -346 31 -512 20
-482 -30 -951 -212 -1336 -519 -189 -151 -415 -410 -536 -616 -68 -115 -162
-313 -195 -408 -13 -37 -29 -70 -35 -73 -6 -2 -522 77 -1145 177 -624 100
-1640 262 -2259 360 -619 99 -1139 182 -1155 185 -30 5 -31 8 -43 77 -18 101
-75 269 -123 357 -193 359 -502 590 -904 677 -120 26 -378 24 -507 -4 -250
-55 -462 -168 -644 -344 -191 -185 -308 -399 -370 -678 -23 -100 -23 -351 -1
-475 114 -637 686 -1093 1332 -1061 211 10 378 54 545 143 139 74 199 120 315
237 107 107 181 206 227 301 12 25 29 45 37 45 15 0 991 -155 3489 -554 595
-96 1086 -176 1089 -180 3 -3 10 -70 14 -149 42 -725 419 -1384 1034 -1809
407 -281 948 -430 1445 -399 500 32 917 183 1310 475 122 90 365 333 456 456
448 600 588 1341 390 2060 -159 580 -552 1092 -1073 1399 l-72 43 29 81 c17
45 246 687 509 1427 l479 1345 159 -4 c376 -8 721 88 1012 283 l82 55 1272
-1107 c700 -608 1519 -1321 1821 -1584 303 -263 553 -477 557 -476 13 5 479
542 477 549 -2 4 -806 705 -1788 1559 -982 853 -1800 1566 -1818 1584 l-33 32
35 76 35 75 63 6 c35 4 221 12 413 18 852 27 1877 -29 2720 -147 1256 -176
2364 -452 3515 -874 407 -149 363 -129 357 -164 -3 -17 -16 -85 -28 -151 -30
-164 -33 -550 -6 -725 107 -675 472 -1241 1052 -1631 157 -105 413 -223 626
-287 99 -30 303 -70 396 -78 l82 -7 6 -41 c4 -37 325 -4080 325 -4099 0 -5
-73 61 -162 146 -900 855 -1792 1493 -2846 2035 l-213 109 -2 174 c-4 238 -39
385 -134 574 -345 687 -1215 923 -1862 505 -105 -68 -259 -212 -332 -312 -28
-37 -55 -68 -59 -68 -4 0 -73 15 -152 34 -534 128 -1132 226 -1678 275 -753
68 -1605 66 -2315 -4 -294 -30 -933 -116 -952 -129 -1 -1 13 -43 32 -93 52
-139 103 -322 133 -480 24 -132 28 -142 47 -138 55 13 446 67 645 89 462 51
774 68 1275 68 891 -1 1650 -83 2510 -273 99 -22 196 -44 216 -49 l36 -10 8
-92 c5 -51 9 -109 9 -128 l1 -35 -70 -18 c-153 -39 -272 -32 -515 29 -115 28
-435 146 -650 239 -125 54 -381 136 -533 171 -153 36 -172 38 -332 38 -179 1
-201 -3 -380 -61 -67 -21 -169 -65 -184 -79 -2 -2 33 -76 79 -165 139 -273
190 -459 190 -699 0 -153 -18 -275 -65 -444 -39 -138 -164 -452 -175 -439 -4
5 -12 253 -19 553 -7 300 -16 703 -21 895 l-10 350 30 25 c33 28 90 108 90
128 0 24 -39 12 -54 -16 -8 -15 -36 -47 -61 -71 l-47 -43 16 -672 c9 -369 18
-781 21 -916 3 -135 8 -298 11 -362 l5 -118 -38 0 c-21 0 -66 -6 -101 -14 -38
-8 -65 -9 -69 -3 -3 5 -3 104 1 220 3 117 9 584 12 1039 l7 827 -32 27 c-17
14 -43 46 -57 70 -17 28 -33 44 -46 44 -15 0 -18 -4 -13 -22 11 -35 41 -80 74
-113 l31 -29 -6 -601 c-4 -330 -9 -800 -13 -1044 l-6 -445 -65 -33 c-180 -91
-303 -259 -257 -351 14 -29 14 -32 -10 -54 -37 -34 -45 -63 -28 -103 9 -24 26
-40 52 -52 21 -10 40 -18 42 -20 1 -1 -4 -12 -13 -25 -26 -37 -21 -82 15 -112
17 -14 37 -26 46 -26 11 0 13 -5 8 -17 -26 -61 -3 -127 52 -152 l28 -13 -40
-12 c-144 -44 -283 -158 -368 -303 -27 -46 -69 -100 -95 -123 -64 -57 -199
-121 -372 -175 -765 -244 -1358 -556 -1783 -940 -149 -134 -161 -151 -165
-241 -4 -62 0 -81 23 -133 31 -69 69 -107 201 -198 112 -79 227 -177 534 -463
257 -238 350 -320 465 -411 128 -101 98 -96 302 -49 321 74 623 107 866 94
l129 -7 -42 84 c-125 249 -332 468 -581 618 -113 67 -314 162 -511 241 -87 34
-158 66 -158 71 0 4 39 32 88 62 246 152 381 272 522 462 117 156 176 208 326
283 162 82 334 119 466 102 181 -23 235 -8 281 81 l28 54 -6 -630 c-3 -346 -6
-799 -8 -1005 l-2 -375 210 0 210 0 -3 120 c-9 364 -42 1763 -42 1783 0 18 5
22 33 22 82 0 145 96 102 157 -14 19 -13 21 9 27 12 3 35 15 49 27 32 24 36
71 11 108 -14 19 -14 25 -3 32 8 5 19 9 24 9 6 0 23 11 40 24 53 42 35 115
-38 153 l-28 14 26 30 c14 17 25 40 25 52 -1 29 -35 103 -67 146 -23 29 -24
33 -7 27 10 -4 45 -13 77 -21 80 -19 96 -32 144 -123 33 -64 45 -74 148 -137
99 -61 218 -174 277 -263 25 -37 80 -134 122 -217 86 -170 113 -207 281 -401
122 -140 249 -259 342 -322 l52 -34 -28 -42 c-38 -54 -170 -181 -250 -240 -36
-26 -155 -101 -265 -167 -111 -66 -241 -149 -291 -184 -111 -80 -241 -207
-307 -299 -53 -75 -153 -265 -144 -273 3 -3 56 -5 118 -4 148 2 311 -26 459
-79 273 -99 379 -132 403 -126 34 8 185 111 296 200 178 144 358 331 686 711
100 116 229 260 288 320 125 130 166 199 173 297 4 53 1 70 -19 105 -46 83
-714 748 -1028 1024 -357 314 -648 522 -900 646 -74 37 -152 79 -172 95 -47
37 -80 107 -108 231 -30 134 -68 206 -159 298 -94 95 -202 152 -334 177 l-87
16 0 66 0 66 83 27 c176 56 373 82 562 74 225 -10 315 -38 636 -206 368 -191
543 -236 909 -236 187 0 423 18 447 34 12 7 31 207 78 785 19 236 37 440 40
453 2 13 7 68 11 121 4 53 9 101 11 105 3 5 27 -25 53 -65 166 -252 399 -430
689 -525 322 -105 677 -76 987 80 117 60 211 127 314 226 47 44 89 81 94 81 9
0 152 -74 401 -208 744 -400 1526 -953 2165 -1531 179 -162 510 -482 510 -493
0 -5 -24 -38 -54 -71 -101 -117 -184 -261 -240 -415 -93 -260 -93 -574 1 -847
152 -441 536 -770 993 -851 113 -20 345 -22 440 -5 345 65 629 239 838 516 96
127 187 337 226 518 l6 27 1503 0 1503 0 44 -92 c253 -519 722 -870 1290 -963
139 -23 399 -23 535 -1 192 32 357 86 525 172 327 167 588 432 757 767 235
469 239 1026 13 1505 -84 176 -184 318 -333 471 -237 243 -541 408 -887 481
-132 28 -390 38 -537 21 -478 -56 -915 -309 -1194 -691 -182 -249 -305 -568
-326 -842 l-6 -88 -1488 0 -1489 0 -29 58 c-125 245 -332 452 -576 575 -71 36
-269 107 -299 107 -9 0 -16 2 -16 5 0 7 -328 4133 -341 4297 -6 75 -9 143 -6
151 3 8 29 20 59 27 177 42 459 165 642 280 l98 63 63 -64 c35 -35 269 -278
521 -540 253 -261 776 -803 1164 -1204 388 -401 864 -894 1058 -1095 194 -201
356 -366 361 -368 4 -1 126 111 270 249 l262 251 -73 77 c-156 163 -2404 2491
-2849 2950 l-247 255 68 100 c206 309 330 627 387 996 24 158 24 499 0 660
-22 141 -75 356 -117 470 -49 135 -161 357 -242 481 -370 566 -932 934 -1603
1049 -153 27 -429 36 -593 21 -438 -40 -857 -201 -1212 -464 -181 -134 -496
-473 -566 -609 -12 -23 -21 -29 -37 -25 -12 2 -146 51 -297 107 -1739 647
-3566 1007 -5485 1081 -257 10 -1276 7 -1405 -4 -24 -2 -25 0 -32 83 -38 431
-251 851 -574 1133 -244 212 -540 355 -843 408 -133 23 -378 32 -491 19z m325
-925 c315 -55 564 -286 645 -600 29 -109 29 -270 1 -380 -27 -106 -97 -245
-164 -325 -100 -122 -258 -222 -417 -266 -90 -25 -309 -25 -399 0 -348 96
-579 379 -606 742 -20 280 133 568 384 722 172 105 360 141 556 107z m11105
-2059 c392 -97 717 -419 820 -814 150 -572 -180 -1172 -746 -1357 -189 -62
-433 -72 -619 -25 -574 144 -950 712 -850 1286 87 496 477 866 990 938 17 2
91 3 165 1 103 -3 160 -10 240 -29z m-13462 -4262 c230 -22 499 -159 673 -341
202 -213 309 -484 309 -783 0 -770 -766 -1315 -1498 -1066 -166 57 -326 159
-449 289 -165 174 -270 387 -303 615 -18 121 -8 346 20 447 126 462 525 802
992 844 89 8 131 8 256 -5z m5697 -740 c127 -24 340 -88 506 -152 191 -74 349
-138 354 -143 3 -4 -9 -273 -19 -429 -3 -41 -8 -123 -12 -182 -4 -60 -10 -108
-15 -108 -8 0 -52 56 -91 116 -39 61 -120 226 -163 334 -46 114 -49 118 -72
98 -16 -14 -21 -15 -43 -3 -14 8 -32 14 -41 15 -9 0 -24 10 -32 23 l-16 22
-26 -28 c-14 -15 -25 -35 -25 -43 0 -16 -21 -19 -36 -4 -7 7 -27 3 -62 -12
-43 -18 -56 -20 -72 -10 -28 17 -48 15 -60 -8 -19 -36 -67 -51 -187 -60 -64
-5 -121 -14 -126 -19 -7 -7 -14 -7 -23 0 -9 7 -21 -1 -44 -30 -20 -25 -42 -41
-58 -43 -22 -3 -31 -14 -57 -76 -29 -70 -56 -112 -73 -112 -4 0 -17 59 -29
130 -29 167 -66 278 -159 469 -40 84 -74 157 -74 162 0 21 235 95 350 109 86
11 305 2 405 -16z m1160 -1077 c108 -54 197 -77 315 -84 118 -6 205 5 335 42
48 14 89 24 90 23 3 -3 -28 -380 -41 -500 l-7 -67 -67 -24 c-102 -38 -179 -50
-283 -44 -128 7 -199 32 -460 160 l-229 112 6 35 c20 114 56 446 56 512 0 13
27 -1 108 -56 59 -40 139 -89 177 -109z m-1028 83 c151 -36 312 -106 532 -233
l123 -72 -6 -64 c-3 -35 -7 -66 -9 -68 -3 -2 -38 9 -78 25 -81 32 -219 73
-314 94 -38 8 -133 12 -260 12 -220 0 -309 -14 -570 -88 -66 -18 -121 -32
-123 -31 -2 2 9 59 23 126 15 68 28 133 30 144 5 26 134 105 229 140 129 48
260 53 423 15z m-808 -1146 c97 -24 172 -66 250 -139 86 -82 134 -169 161
-296 24 -113 56 -185 104 -232 23 -23 91 -63 179 -106 405 -198 846 -558 1554
-1268 397 -398 402 -404 387 -484 -15 -79 -57 -142 -169 -259 -113 -116 -148
-154 -399 -445 -308 -355 -485 -523 -730 -693 -49 -34 -99 -62 -110 -62 -28 0
-78 17 -276 90 -225 83 -297 100 -467 107 l-142 6 24 46 c63 126 170 258 285
355 96 80 157 121 392 262 231 139 300 187 395 277 71 68 183 204 183 223 0 5
-28 28 -63 51 -125 82 -250 204 -438 423 -91 107 -108 133 -194 299 -46 88
-100 186 -121 218 -80 120 -198 226 -366 326 -14 9 -47 52 -73 95 -51 86 -87
114 -160 128 -105 19 -208 95 -248 183 -26 56 -31 217 -8 244 16 20 77 22 150
5 55 -12 56 -12 65 17 5 17 -7 27 -73 62 -90 49 -155 109 -172 160 -11 33 -8
99 6 149 4 12 -1 29 -13 45 -19 22 -27 24 -99 23 -95 -1 -210 -36 -312 -94
-77 -43 -149 -67 -174 -57 -41 16 -11 102 62 180 61 66 197 141 295 162 86 19
236 18 315 -1z m-149 -395 l0 -138 -35 15 c-19 7 -44 14 -55 14 -28 0 -26 5
20 46 77 70 40 146 -77 159 -79 9 -82 11 -48 25 50 20 169 38 183 27 8 -7 12
-49 12 -148z m-103 26 c52 -36 -9 -73 -187 -115 -179 -42 -232 -47 -265 -26
-31 20 -32 36 -2 63 64 60 399 117 454 78z m211 -208 c-12 -4 -31 -15 -40 -24
-17 -15 -18 -13 -18 47 l0 64 40 -39 c39 -38 40 -40 18 -48z m-147 -4 c19 -19
20 -24 9 -38 -24 -29 -48 -35 -222 -55 -211 -24 -210 -24 -238 -2 -19 15 -21
22 -12 39 29 53 153 83 339 80 91 -2 105 -4 124 -24z m49 -119 c0 -14 -31 -20
-43 -7 -8 8 25 33 35 27 5 -3 8 -12 8 -20z m14998 -59 c97 -20 257 -96 337
-162 326 -266 393 -732 157 -1080 -60 -88 -186 -201 -278 -250 -129 -68 -237
-95 -379 -96 -79 0 -143 5 -187 16 -370 91 -617 404 -621 787 -1 144 17 222
83 355 113 229 335 394 590 438 60 10 227 6 298 -8z m-15021 -17 c16 -16 16
-19 -2 -38 -29 -32 -109 -50 -240 -56 -135 -6 -168 3 -173 47 -6 54 49 68 265
65 111 -1 135 -4 150 -18z m23 -139 c0 -35 -2 -40 -17 -34 -10 4 -40 13 -66
19 l-49 12 51 13 c28 7 53 17 57 22 13 21 24 6 24 -32z m80 -71 c0 -4 -7 -5
-15 -2 -8 4 -15 18 -15 33 l1 26 14 -25 c8 -14 14 -28 15 -32z m-177 13 c97
-25 168 -59 239 -115 68 -54 118 -124 125 -176 5 -32 2 -40 -16 -50 -31 -16
-69 -6 -191 50 -115 52 -191 72 -282 72 -74 0 -104 -18 -119 -74 -33 -126
-167 -277 -268 -304 -33 -9 -34 -10 -16 -27 13 -13 26 -17 44 -12 14 4 59 9
99 12 112 8 142 -25 142 -157 0 -74 -15 -121 -46 -151 -24 -22 -31 -24 -112
-19 -261 14 -361 -1 -541 -80 -173 -76 -251 -140 -383 -314 -163 -216 -263
-301 -585 -500 -51 -32 -93 -61 -93 -65 0 -4 100 -47 223 -96 494 -198 745
-359 931 -599 56 -72 156 -230 156 -247 0 -4 -100 -9 -222 -12 -237 -5 -403
-27 -653 -83 -66 -14 -141 -31 -166 -37 l-47 -10 -88 69 c-115 89 -290 244
-501 442 -290 272 -357 328 -605 511 -68 49 -107 116 -115 196 -8 73 14 111
116 206 421 385 993 696 1721 933 129 42 276 97 327 121 111 54 197 130 241
213 133 249 412 372 685 303z m-18 -272 c86 -23 125 -41 125 -60 0 -16 -8 -19
-49 -19 -74 0 -109 -10 -143 -41 -26 -25 -29 -34 -24 -61 3 -17 14 -40 23 -50
19 -21 18 -23 -24 -31 l-33 -6 0 139 0 140 43 0 c23 0 60 -5 82 -11z m-168
-121 c-4 -51 -7 -147 -7 -213 -1 -116 -2 -119 -15 -77 -7 24 -22 53 -32 64
-22 26 -74 48 -109 48 -25 0 -24 3 30 61 54 58 116 162 116 194 0 8 5 15 11
15 8 0 10 -27 6 -92z m499 -27 c54 -15 104 -47 104 -68 0 -37 -30 -53 -100
-53 -113 0 -283 21 -327 40 -48 21 -64 53 -39 79 30 29 258 30 362 2z m-127
-161 c113 -19 185 -74 150 -116 -12 -15 -29 -16 -129 -11 -224 12 -332 34
-351 70 -10 18 -8 24 15 44 25 21 36 23 139 23 62 0 141 -5 176 -10z m-299
-141 c0 -5 -7 -9 -15 -9 -8 0 -15 7 -15 15 0 9 6 12 15 9 8 -4 15 -10 15 -15z
m320 -60 c61 -13 80 -38 55 -75 -25 -38 -59 -46 -170 -39 -144 9 -201 22 -237
54 l-31 28 21 21 c21 21 32 22 167 22 79 0 167 -5 195 -11z m-285 -140 c17 -5
68 -12 113 -16 47 -3 85 -11 87 -17 2 -6 6 -135 10 -286 3 -151 12 -545 20
-875 8 -330 15 -624 15 -652 l0 -53 -166 0 -166 0 7 953 c4 523 10 956 12 960
3 5 12 5 22 2 9 -4 30 -11 46 -16z"/>
<path d="M10595 36872 c-709 -970 -1187 -1752 -1665 -2717 -302 -611 -542
-1173 -765 -1790 -48 -132 -88 -241 -88 -242 -1 -1 -29 5 -62 12 -170 39 -390
37 -570 -5 -498 -116 -882 -514 -982 -1017 -23 -116 -22 -343 1 -468 87 -454
393 -822 816 -982 l85 -32 3 -3145 2 -3146 370 0 370 0 2 3146 3 3146 75 28
c366 133 654 431 780 807 31 95 60 240 60 307 0 22 4 46 8 52 4 7 138 46 297
89 160 42 1001 265 1870 495 869 230 1657 439 1750 464 94 25 177 46 185 46 8
0 35 -31 60 -68 67 -101 230 -259 336 -328 51 -32 99 -63 107 -69 14 -9 9 -25
-35 -120 -74 -162 -209 -492 -295 -720 -278 -740 -499 -1585 -618 -2365 -15
-96 -30 -178 -34 -181 -3 -3 -64 -11 -136 -17 -425 -37 -851 -201 -1205 -465
-125 -94 -330 -295 -430 -422 -461 -590 -616 -1332 -430 -2061 127 -493 439
-963 845 -1270 371 -281 750 -430 1216 -480 489 -52 1020 69 1454 331 288 174
558 435 758 732 180 270 327 681 367 1028 15 134 12 417 -5 552 -90 688 -468
1296 -1038 1672 -192 126 -366 210 -570 277 -62 20 -87 33 -87 45 0 37 92 558
129 736 179 839 437 1620 792 2392 77 169 95 201 113 201 39 0 228 50 305 81
320 128 600 408 721 722 17 43 43 126 57 185 24 95 27 127 27 282 1 186 -11
271 -59 412 l-23 67 112 148 c511 682 1163 1370 1796 1896 80 66 151 126 159
133 11 10 -1 30 -72 121 -99 126 -185 256 -264 397 -31 56 -58 102 -59 104 -4
6 -256 -204 -439 -364 -576 -505 -1094 -1054 -1576 -1670 -67 -85 -124 -156
-128 -158 -3 -2 -43 18 -87 43 -217 126 -442 178 -714 168 -194 -7 -336 -43
-505 -127 -411 -204 -683 -597 -723 -1044 l-7 -79 -120 -33 c-66 -18 -649
-173 -1295 -344 -646 -172 -1323 -351 -1505 -399 -1215 -323 -1188 -316 -1199
-297 -6 10 -33 48 -60 84 l-50 66 48 141 c552 1615 1435 3270 2475 4640 l91
120 -80 17 c-180 38 -437 143 -584 236 -28 18 -52 32 -55 32 -4 0 -15 -13 -26
-28z m-2705 -5334 c30 -6 98 -31 150 -56 80 -39 109 -60 180 -131 137 -138
200 -287 201 -476 1 -201 -79 -381 -228 -515 -71 -63 -214 -136 -308 -155
-313 -65 -628 92 -765 381 -43 91 -60 173 -60 289 0 122 16 192 72 305 32 67
58 102 122 166 177 177 387 240 636 192z m5075 -4724 c346 -66 655 -307 806
-628 141 -302 144 -659 6 -950 -154 -326 -425 -547 -777 -633 -144 -36 -359
-38 -495 -5 -231 56 -417 163 -578 331 -206 216 -308 474 -310 781 -1 135 10
209 50 335 135 432 538 751 993 788 74 6 220 -3 305 -19z"/>
<path d="M24480 31384 c-14 -2 -59 -9 -100 -15 -144 -21 -234 -74 -260 -154
l-12 -35 -39 33 c-125 108 -265 129 -544 82 -184 -32 -255 -49 -315 -80 -66
-33 -100 -77 -100 -126 0 -21 -1 -39 -2 -39 -2 0 -27 9 -55 20 -168 64 -354
54 -536 -27 -97 -43 -218 -112 -266 -151 -122 -99 -109 -183 53 -340 154 -149
264 -189 494 -179 107 4 146 10 251 41 69 20 153 51 188 68 80 39 140 103 149
158 4 22 9 40 11 40 3 0 18 -9 33 -20 59 -42 179 -91 261 -106 209 -40 515 33
612 146 20 24 37 51 37 60 0 32 13 29 69 -14 114 -89 203 -116 384 -116 206 0
316 27 414 101 29 21 54 39 56 39 3 0 8 -11 11 -24 16 -63 135 -134 297 -178
127 -34 313 -32 424 5 44 14 110 44 147 67 37 22 69 40 72 40 4 0 6 -10 6 -22
0 -12 9 -41 21 -65 29 -59 112 -112 246 -157 151 -49 245 -66 370 -66 194 0
307 45 444 177 88 85 139 162 139 210 0 45 -39 103 -102 149 -86 63 -288 160
-383 185 -138 35 -289 26 -403 -23 -24 -10 -46 -18 -48 -18 -2 0 -4 18 -4 39
0 49 -30 87 -97 123 -60 33 -127 50 -319 83 -175 29 -297 32 -375 9 -62 -18
-147 -64 -174 -94 -21 -24 -35 -26 -35 -5 0 27 -69 92 -121 114 -75 33 -179
50 -372 61 -163 9 -473 11 -527 4z m473 -84 c284 -15 416 -42 452 -93 35 -50
18 -95 -90 -237 -158 -208 -226 -245 -471 -257 -267 -12 -366 39 -550 282 -34
44 -68 94 -77 112 -22 42 -22 96 1 116 43 39 143 66 292 80 77 8 265 6 443 -3z
m-1017 -100 c129 -63 312 -279 322 -381 4 -43 1 -51 -24 -75 -101 -94 -392
-146 -571 -101 -88 23 -202 88 -282 163 -70 64 -178 203 -187 240 -19 76 40
110 266 153 206 40 201 39 311 37 87 -1 102 -5 165 -36z m2186 6 c213 -41 298
-78 298 -128 0 -30 -35 -90 -98 -169 -165 -209 -390 -311 -617 -281 -170 23
-325 86 -353 144 -28 59 35 175 173 314 78 80 129 114 210 141 58 19 224 10
387 -21z m-3119 -205 c80 -32 171 -103 234 -184 124 -161 88 -228 -168 -311
-190 -62 -386 -73 -510 -28 -139 49 -324 227 -304 292 19 59 262 199 415 240
102 27 250 23 333 -9z m3933 9 c136 -35 368 -162 409 -224 15 -23 15 -28 0
-59 -25 -53 -157 -180 -223 -215 -157 -84 -364 -83 -612 3 -146 51 -195 85
-206 141 -20 109 188 324 352 363 70 16 196 12 280 -9z"/>
<path d="M23720 31102 c-78 -4 -244 -33 -272 -48 -58 -30 -43 -79 56 -179 81
-80 142 -105 259 -105 124 1 300 44 322 80 10 16 -39 92 -93 148 -79 82 -156
111 -272 104z"/>
<path d="M22734 30884 c-80 -13 -124 -30 -205 -80 -72 -43 -87 -66 -65 -99 81
-123 284 -150 549 -74 80 24 107 47 107 91 0 26 -10 42 -51 80 -84 79 -194
106 -335 82z"/>
<path d="M26675 30906 c-69 -22 -119 -53 -163 -100 -70 -76 -53 -121 63 -161
136 -47 310 -59 418 -28 62 17 140 78 152 119 9 34 -30 70 -128 119 -129 63
-247 81 -342 51z"/>
<path d="M19773 27443 c4 -3061 1 -2883 52 -3323 71 -600 234 -1220 462 -1754
476 -1117 1302 -2058 2447 -2790 510 -326 1045 -597 1681 -851 272 -109 294
-115 329 -100 17 8 75 32 129 55 883 367 1679 825 2317 1335 808 644 1393
1351 1809 2185 310 623 491 1222 587 1938 61 461 57 257 61 3335 l4 2817
-4941 0 -4941 0 4 -2847z m9797 175 c0 -2475 -4 -2876 -30 -3173 -13 -146 -64
-512 -91 -655 -207 -1082 -685 -2050 -1423 -2877 -550 -617 -1235 -1153 -2066
-1618 -316 -176 -858 -436 -1163 -559 l-89 -35 -116 44 c-916 343 -1782 821
-2444 1350 -926 739 -1578 1648 -1938 2701 -173 506 -267 961 -332 1599 l-22
220 -4 2798 -3 2797 4861 0 4860 0 0 -2592z"/>
<path d="M20092 28528 l3 -1383 4615 0 4615 0 3 1383 2 1382 -4620 0 -4620 0
2 -1382z m213 1262 c50 -16 126 -38 170 -50 44 -12 121 -34 170 -50 50 -16
146 -45 215 -64 69 -20 202 -59 295 -86 94 -28 222 -66 285 -84 63 -19 178
-53 255 -76 77 -23 199 -59 270 -80 72 -22 270 -80 440 -131 171 -50 393 -116
495 -146 102 -30 259 -77 350 -104 161 -48 304 -90 640 -191 185 -55 341 -101
605 -178 99 -29 186 -56 194 -60 8 -4 39 1 70 11 31 10 110 34 176 53 198 56
364 105 480 141 140 42 328 98 475 141 63 19 196 58 295 87 99 30 380 114 625
186 245 73 506 150 580 173 74 22 187 55 250 74 63 18 189 56 280 82 91 27
215 63 275 81 61 17 175 51 255 76 172 51 277 82 461 135 75 21 177 52 228 69
51 17 96 31 102 31 5 0 9 -232 9 -604 l0 -604 -27 -6 c-16 -4 -98 -29 -183
-55 -85 -27 -245 -77 -355 -111 -110 -34 -247 -77 -305 -95 -58 -19 -199 -63
-315 -99 -394 -122 -860 -267 -1000 -311 -310 -97 -469 -146 -660 -205 -110
-34 -247 -77 -305 -95 -58 -18 -195 -61 -305 -95 -110 -34 -265 -82 -345 -107
-80 -25 -217 -67 -305 -95 -88 -27 -215 -67 -283 -89 -67 -21 -136 -39 -153
-39 -16 0 -85 18 -152 39 -67 21 -205 65 -307 96 -102 31 -232 72 -290 90 -58
18 -195 61 -305 95 -110 34 -247 77 -305 95 -58 18 -195 61 -305 95 -110 34
-270 83 -355 110 -85 27 -245 76 -355 110 -110 34 -247 77 -305 95 -58 19
-224 70 -370 115 -146 45 -312 97 -370 115 -58 18 -172 54 -255 80 -169 53
-396 123 -625 195 -85 27 -174 54 -197 61 l-43 12 0 604 0 604 23 -6 c12 -3
63 -19 112 -35z"/>
<path d="M20093 25753 c4 -1209 6 -1250 52 -1629 50 -413 162 -898 293 -1269
159 -452 379 -889 639 -1268 681 -997 1712 -1790 3097 -2382 184 -78 451 -184
499 -196 54 -15 57 -14 392 133 1682 741 2886 1769 3580 3057 309 573 524
1236 615 1889 61 445 63 474 67 1695 l5 1127 -4622 0 -4621 0 4 -1157z m9157
90 c0 -1150 -8 -1335 -76 -1794 -20 -139 -60 -349 -67 -355 -10 -9 -240 79
-352 135 -387 191 -731 449 -1076 806 -275 285 -500 594 -691 950 -39 72 -79
140 -91 153 -37 40 -73 30 -166 -48 -45 -38 -86 -70 -91 -70 -5 0 -41 18 -82
39 -99 54 -174 71 -303 71 -58 0 -115 5 -126 11 -11 6 -33 39 -49 74 -16 36
-38 69 -51 76 -35 18 -86 12 -134 -15 -58 -35 -165 -152 -204 -225 -57 -107
-109 -120 -181 -45 l-45 46 -61 -6 c-54 -4 -130 -27 -359 -109 -92 -33 -210
-57 -283 -57 -53 0 -61 3 -92 35 -43 44 -91 67 -143 67 -65 0 -96 -17 -177
-96 -187 -182 -448 -241 -1150 -261 -494 -13 -660 -39 -738 -112 -19 -18 -41
-33 -48 -33 -7 0 -20 20 -29 44 -21 54 -33 59 -84 41 -95 -33 -163 -87 -207
-163 -66 -115 -125 -144 -284 -140 -89 3 -99 1 -150 -27 -80 -43 -165 -133
-350 -370 -189 -241 -316 -384 -409 -462 -132 -110 -262 -188 -400 -240 -70
-26 -201 -56 -209 -48 -9 9 -59 328 -76 485 -38 342 -39 386 -43 1508 l-4
1122 4540 0 4541 0 0 -987z m-567 -3380 c8 -7 -136 -289 -215 -422 -726 -1218
-1910 -2175 -3572 -2886 -134 -57 -186 -75 -205 -70 -90 22 -628 250 -886 374
-1336 645 -2267 1459 -2883 2521 -67 115 -242 460 -242 478 0 9 806 12 3998
12 2199 0 4002 -3 4005 -7z"/>
<path d="M14250 22633 c-184 -70 -337 -128 -339 -129 -2 -2 155 -424 349 -939
194 -515 351 -937 349 -939 -2 -1 -40 -29 -84 -61 -187 -136 -380 -358 -490
-563 -19 -35 -34 -52 -45 -50 -9 2 -825 206 -1813 453 l-1797 450 0 60 c0 33
-5 102 -10 154 -43 410 -206 755 -490 1042 -263 266 -521 408 -890 490 -148
33 -453 38 -623 10 -709 -116 -1264 -652 -1417 -1367 -28 -128 -38 -401 -21
-541 44 -353 186 -672 421 -940 294 -337 748 -558 1192 -580 l116 -6 63 -136
c559 -1214 1275 -2387 2091 -3428 48 -62 88 -115 88 -117 0 -3 -26 -40 -59
-83 -137 -183 -257 -411 -334 -638 -92 -271 -122 -455 -122 -765 0 -254 14
-367 70 -586 222 -868 917 -1534 1796 -1722 329 -71 716 -68 1039 9 334 79
678 247 946 463 93 75 265 240 316 305 l35 44 609 -350 c1793 -1032 2279
-1314 2279 -1321 -1 -4 -7 -41 -15 -82 -23 -117 -18 -350 9 -479 52 -244 160
-448 330 -625 187 -193 385 -307 649 -374 97 -24 124 -26 292 -26 167 0 195 2
290 26 256 64 453 172 620 338 188 187 303 396 366 665 26 110 26 393 0 513
-56 263 -176 484 -361 667 -193 192 -435 316 -704 361 -124 20 -364 15 -479
-10 -209 -46 -429 -155 -571 -282 l-50 -45 -43 24 c-24 14 -540 312 -1148 663
-608 350 -1238 713 -1400 806 -162 94 -296 171 -297 172 -2 1 11 42 27 90 64
189 120 470 120 611 0 97 3 102 68 109 32 4 626 85 1322 181 696 96 1677 231
2180 300 503 69 1208 166 1565 216 358 50 673 93 701 96 l52 6 38 -74 c83
-159 240 -338 390 -445 139 -100 344 -186 522 -220 115 -22 348 -23 456 0 44
8 80 15 81 13 1 -1 71 -121 155 -267 84 -146 441 -759 792 -1363 351 -604 638
-1101 638 -1104 0 -3 -59 -62 -130 -130 -413 -396 -660 -890 -721 -1438 -6
-61 -13 -111 -14 -113 -4 -4 -473 47 -675 74 -282 37 -663 98 -945 150 -197
36 -707 147 -877 190 -53 13 -99 24 -102 24 -3 0 -13 -26 -22 -57 -48 -166
-146 -370 -256 -534 -33 -50 -59 -92 -57 -93 2 -2 108 -29 234 -59 844 -206
1748 -356 2594 -432 96 -9 176 -17 177 -18 1 -1 14 -42 29 -92 90 -298 251
-593 458 -840 230 -274 543 -504 882 -648 586 -249 1267 -250 1851 -2 717 305
1238 943 1397 1710 l22 110 140 27 c1034 200 2126 515 3078 889 336 132 913
381 1070 460 l37 20 -108 107 c-129 128 -209 225 -309 375 -41 62 -76 113 -77
115 -2 1 -54 -21 -117 -49 -818 -367 -1582 -644 -2437 -883 -519 -145 -1279
-318 -1287 -292 -2 6 -16 61 -30 121 -117 500 -387 941 -781 1276 -115 98
-338 244 -474 311 -508 251 -1102 311 -1647 168 -61 -17 -144 -41 -183 -56
-39 -14 -73 -24 -74 -22 -14 20 -1577 2718 -1581 2729 -3 8 13 37 36 64 22 28
62 82 88 120 337 491 279 1171 -136 1606 -185 193 -413 322 -673 381 -145 32
-387 32 -537 0 -389 -84 -723 -343 -902 -700 -41 -81 -98 -252 -107 -319 -6
-48 -9 -52 -38 -57 -34 -6 -331 -47 -3046 -421 -1020 -141 -2068 -285 -2329
-321 -260 -36 -474 -64 -475 -62 -1 2 -24 62 -50 133 -277 751 -942 1326
-1721 1488 -188 39 -296 50 -495 51 -269 0 -477 -32 -720 -110 -191 -61 -411
-162 -544 -249 -24 -16 -30 -9 -318 370 -364 480 -853 1240 -1205 1870 -129
231 -553 1066 -553 1089 0 6 33 28 73 49 128 68 258 167 392 302 127 126 216
244 291 382 16 29 36 53 44 53 17 -1 3599 -896 3605 -901 2 -2 8 -71 14 -153
20 -267 68 -443 181 -671 264 -529 746 -866 1355 -946 120 -16 359 -6 505 21
536 97 1003 453 1240 944 201 415 229 850 84 1301 -38 118 -154 347 -231 455
-87 122 -282 316 -403 403 -113 81 -338 194 -470 236 -199 65 -262 74 -535 76
l-250 3 -350 931 c-192 512 -354 930 -360 930 -5 0 -161 -57 -345 -126z
m-5415 -948 c133 -29 290 -120 392 -228 235 -248 288 -618 132 -917 -140 -270
-405 -431 -709 -432 -229 -1 -420 78 -578 241 -150 154 -222 338 -224 565 -1
184 55 343 172 490 194 244 499 349 815 281z m6920 -1735 c272 -70 490 -281
571 -555 22 -75 26 -111 27 -210 1 -242 -75 -419 -252 -588 -103 -98 -220
-162 -361 -198 -112 -29 -307 -23 -415 11 -272 87 -474 296 -547 568 -32 119
-29 298 6 415 46 154 118 272 228 372 202 183 480 252 743 185z m6629 -3989
c134 -44 263 -137 340 -245 88 -124 123 -221 133 -367 7 -121 -13 -221 -69
-338 -32 -68 -57 -101 -127 -172 -74 -75 -100 -94 -181 -133 -119 -57 -233
-81 -340 -73 -171 14 -321 81 -435 196 -79 80 -116 133 -154 226 -123 294 -17
643 249 820 79 52 117 70 214 96 97 26 271 21 370 -10z m3368 -5376 c121 -21
209 -50 323 -107 686 -342 837 -1259 296 -1799 -254 -252 -574 -363 -942 -326
-170 17 -389 105 -537 216 -332 251 -507 685 -437 1087 43 245 152 451 332
625 254 247 624 364 965 304z"/>
<path d="M19191 22559 c-115 -23 -243 -114 -317 -226 -22 -34 -75 -156 -131
-302 -243 -637 -288 -754 -328 -861 -24 -63 -71 -187 -105 -275 -93 -245 -107
-373 -50 -486 28 -55 185 -211 265 -264 143 -94 270 -135 373 -120 71 9 146
50 195 105 46 51 107 161 147 265 13 33 26 63 29 67 4 4 65 -50 135 -121 l129
-129 -26 -45 c-136 -232 -293 -591 -360 -827 -81 -281 -81 -530 1 -698 54
-114 440 -480 787 -749 326 -252 706 -494 1085 -691 169 -88 433 -213 529
-251 25 -11 109 -45 186 -76 703 -287 1495 -473 2300 -542 260 -22 924 -25
1170 -5 995 81 1823 294 2738 706 261 118 653 332 921 504 410 263 753 538
1094 875 185 183 217 233 248 387 39 194 -13 481 -147 818 -58 146 -187 416
-248 521 l-43 73 128 129 c71 71 131 125 135 121 4 -4 28 -58 54 -120 90 -216
184 -304 338 -319 148 -13 320 71 500 246 105 102 134 148 148 231 20 124 8
166 -186 675 -42 110 -114 299 -160 420 -286 757 -270 721 -371 822 -51 52
-91 82 -140 105 -64 31 -77 33 -169 33 -89 0 -112 -5 -206 -37 -223 -77 -425
-198 -614 -367 -133 -120 -355 -391 -410 -500 -49 -98 -77 -231 -77 -366 0
-133 -3 -122 100 -405 155 -428 342 -951 342 -958 0 -18 -292 -293 -460 -433
-688 -574 -1540 -997 -2510 -1248 -202 -52 -252 -63 -480 -106 -880 -166
-1658 -137 -2595 96 -954 238 -1804 652 -2505 1219 -151 122 -429 378 -480
442 l-29 36 83 234 c46 128 140 388 209 578 68 190 131 363 138 385 22 65 17
262 -9 369 -29 116 -66 192 -148 301 -239 318 -476 523 -762 657 -179 84 -351
126 -441 107z m1003 -3329 c26 -12 87 -60 134 -105 l86 -82 -54 -71 c-44 -58
-57 -69 -71 -61 -29 15 -31 27 -10 75 18 41 19 49 7 72 -19 37 -75 89 -109
101 -45 17 -76 13 -103 -15 -35 -34 -27 -76 35 -174 62 -99 83 -145 89 -197
14 -123 -117 -255 -237 -239 -25 3 -70 18 -98 32 -62 30 -209 170 -218 207 -6
21 3 39 47 96 53 70 72 80 91 49 8 -13 5 -29 -12 -66 -30 -63 -23 -96 32 -158
73 -83 146 -97 204 -39 32 32 35 40 30 76 -3 22 -21 64 -40 93 -46 69 -93 163
-101 203 -15 68 40 174 111 213 49 26 121 22 187 -10z m8829 -134 c12 -8 149
-82 305 -165 254 -136 284 -149 307 -139 19 8 28 8 40 -2 8 -7 15 -16 15 -20
0 -6 -183 -169 -223 -199 -16 -11 -21 -11 -35 3 -15 14 -14 18 7 40 13 14 21
31 18 38 -3 7 -39 31 -81 52 l-75 39 -53 -49 c-29 -27 -73 -67 -97 -88 l-44
-39 24 -70 c34 -98 40 -105 72 -84 33 21 56 22 64 0 4 -10 -2 -23 -17 -35 -13
-10 -48 -41 -78 -68 -31 -28 -59 -50 -63 -50 -3 0 -12 7 -19 15 -10 12 -9 20
3 39 15 22 10 40 -108 357 l-124 334 57 52 c62 57 71 60 105 39z m-288 -257
c5 -15 0 -29 -17 -47 l-25 -27 23 -175 c12 -96 23 -189 23 -207 1 -22 21 -60
68 -126 l66 -95 48 26 c46 26 49 26 65 10 10 -10 16 -19 13 -22 -27 -24 -317
-226 -325 -226 -29 0 -24 35 11 70 19 20 35 39 35 43 0 4 -28 46 -61 93 -52
73 -69 90 -113 109 -28 12 -83 37 -121 55 -214 100 -215 100 -253 84 -32 -13
-37 -13 -51 1 -21 21 -24 19 234 200 27 19 53 35 57 35 3 0 10 -10 14 -22 5
-17 -1 -28 -24 -49 l-31 -28 142 -70 c78 -38 143 -68 144 -67 4 4 -36 298 -41
303 -2 3 -18 -3 -36 -12 -25 -13 -35 -14 -46 -4 -24 20 -16 32 58 84 39 28 80
58 92 67 28 23 43 22 51 -3z m-7920 -53 c40 -28 60 -49 59 -62 -1 -17 -59
-278 -128 -574 -21 -91 -22 -107 -10 -121 18 -20 18 -48 0 -55 -21 -8 -265
157 -266 179 0 26 24 31 59 12 25 -12 32 -13 36 -3 8 23 35 149 35 163 0 10
-133 106 -208 149 -7 5 -38 -13 -80 -45 -37 -29 -69 -55 -72 -57 -3 -2 10 -17
28 -33 27 -25 31 -32 22 -49 -6 -11 -13 -20 -16 -20 -10 0 -184 123 -184 130
0 17 30 30 54 24 27 -6 4 -21 426 281 96 69 177 125 180 125 3 -1 32 -20 65
-44z m420 -276 c50 -27 124 -68 165 -90 102 -55 164 -102 201 -153 27 -36 30
-48 26 -89 -7 -82 -89 -157 -170 -158 l-29 0 37 -42 c42 -50 49 -73 42 -134
-5 -48 -39 -100 -91 -138 -22 -17 -42 -21 -104 -21 -89 1 -110 9 -357 150 -82
46 -154 86 -159 88 -5 2 -5 13 -1 26 5 18 12 21 28 17 12 -4 34 -9 48 -12 30
-7 22 -19 145 206 37 69 90 163 116 210 26 46 48 89 48 95 0 5 -14 19 -30 30
-28 19 -38 44 -23 58 10 11 13 10 108 -43z m6756 -228 c30 -26 113 -94 184
-152 70 -58 168 -138 216 -178 75 -61 94 -72 121 -70 26 2 34 -1 36 -17 2 -16
-24 -35 -134 -98 -105 -61 -139 -76 -145 -65 -14 22 -10 36 19 58 l27 22 -26
21 c-15 12 -47 39 -72 60 l-46 39 -98 -56 c-149 -83 -137 -67 -119 -166 9 -46
18 -85 20 -87 1 -2 22 3 44 11 39 14 42 14 52 -4 9 -17 5 -23 -27 -43 -86 -55
-153 -88 -163 -82 -14 9 -12 36 5 55 15 16 -1 139 -71 557 -14 84 -23 157 -19
163 6 9 125 80 135 80 3 0 30 -22 61 -48z m-5884 -209 l62 -28 1 -54 c0 -30
-7 -192 -16 -360 l-16 -305 21 -15 c14 -11 19 -23 15 -38 -4 -13 -8 -23 -10
-23 -2 0 -45 18 -96 41 -51 22 -117 51 -146 62 -41 17 -52 26 -50 42 3 17 10
20 45 17 l42 -2 6 42 c4 24 5 65 3 93 l-3 50 -115 51 -115 52 -65 -64 -65 -65
33 -27 c30 -25 42 -55 25 -65 -5 -3 -51 14 -103 38 -71 32 -95 47 -95 61 0 14
8 20 31 22 25 2 76 49 279 252 138 138 254 250 260 250 5 0 38 -12 72 -27z
m5421 -10 c2 -13 -6 -26 -22 -37 -15 -9 -26 -21 -26 -27 0 -6 44 -108 97 -227
84 -189 97 -224 97 -272 0 -67 -28 -125 -81 -169 -41 -34 -127 -70 -183 -78
-35 -4 -35 -4 -62 61 -32 75 -34 92 -12 100 26 10 30 8 58 -34 21 -33 32 -40
58 -40 42 0 78 34 78 73 0 17 -18 69 -39 116 -22 47 -71 156 -110 241 -63 141
-72 155 -93 151 -56 -9 -73 -6 -76 14 -2 17 15 28 99 65 56 25 122 55 148 67
53 25 65 24 69 -4z m-4908 -206 c131 -44 155 -55 155 -72 0 -18 -6 -20 -50
-18 l-51 2 -35 -119 -36 -119 132 -44 132 -45 37 119 c20 64 36 120 36 122 0
3 -16 12 -35 21 -34 16 -47 47 -25 61 9 6 318 -91 333 -104 4 -4 5 -15 1 -25
-5 -14 -16 -17 -53 -14 l-46 3 -26 -80 c-15 -44 -56 -171 -92 -283 l-65 -203
39 -20 c40 -20 51 -45 24 -55 -17 -7 -335 95 -335 107 0 30 13 38 59 32 l47
-5 19 68 c10 38 26 91 36 117 11 26 19 54 19 61 0 13 -255 105 -263 95 -2 -2
-21 -60 -41 -129 -36 -119 -37 -125 -19 -137 50 -34 55 -40 49 -60 -7 -21 -7
-21 -89 8 -45 15 -121 40 -169 54 -51 15 -88 31 -88 38 0 24 22 34 63 30 l42
-5 82 254 c107 330 104 313 59 334 -33 16 -46 41 -29 57 10 11 19 9 183 -46z
m4074 -133 c10 -27 7 -31 -33 -47 l-39 -16 33 -113 c18 -62 45 -170 60 -240
26 -114 27 -132 16 -180 -21 -98 -95 -159 -233 -194 -113 -29 -215 -2 -277 73
-36 43 -59 114 -117 346 l-38 157 -42 0 c-41 0 -66 22 -47 41 5 5 79 27 167
50 132 35 159 40 167 28 13 -22 6 -32 -38 -54 l-40 -20 19 -60 c10 -33 34
-124 53 -203 54 -221 83 -262 183 -262 73 0 135 29 156 74 29 61 23 103 -68
441 l-24 90 -48 0 c-45 0 -49 2 -49 24 0 22 9 27 100 52 119 33 131 34 139 13z
m-739 -194 c0 -19 -7 -26 -32 -34 -18 -5 -33 -14 -33 -21 0 -7 14 -103 30
-213 17 -111 30 -225 30 -254 -1 -143 -108 -228 -286 -228 l-72 0 -6 33 c-3
17 -8 56 -12 85 l-7 52 30 0 c26 0 31 -5 44 -47 13 -41 19 -48 43 -51 46 -6
75 6 91 37 13 26 13 40 0 128 -9 54 -24 161 -35 238 -32 226 -24 205 -75 205
-35 0 -45 4 -50 21 -4 11 -5 22 -3 25 6 5 310 52 328 50 9 -1 15 -11 15 -26z
m-2067 -4 c73 -8 135 -16 138 -19 3 -3 20 -54 39 -113 85 -275 110 -354 115
-354 3 0 38 60 79 133 125 221 164 288 173 293 5 3 57 1 116 -5 172 -18 174
-19 170 -44 -2 -18 -11 -23 -48 -27 l-45 -5 -27 -270 c-35 -354 -36 -320 14
-337 44 -14 53 -25 40 -46 -7 -10 -42 -9 -183 5 -174 18 -174 18 -174 43 0 23
4 25 48 28 26 2 47 5 47 8 0 19 41 453 44 467 2 9 1 17 -3 17 -8 0 -9 -1 -146
-245 -162 -288 -162 -287 -183 -276 -12 6 -48 103 -112 300 -51 160 -96 289
-98 287 -2 -3 -12 -98 -22 -213 -11 -114 -22 -227 -24 -250 l-5 -42 42 -8 c41
-8 61 -34 40 -52 -4 -4 -62 -3 -128 3 -118 11 -120 11 -120 36 0 22 5 25 40
28 22 2 43 6 47 10 3 4 19 137 33 296 29 309 29 305 -21 306 -27 0 -46 22 -38
44 3 9 9 16 13 16 3 0 66 -7 139 -14z m1310 -128 c17 -40 54 -127 82 -193 29
-66 74 -174 102 -240 27 -66 52 -125 55 -132 2 -6 18 -16 34 -22 36 -12 40
-48 7 -55 -13 -3 -85 -7 -161 -10 -117 -5 -139 -4 -143 9 -8 19 13 45 35 45
41 1 43 14 9 96 -39 92 -35 90 -204 79 l-101 -7 -22 -73 c-29 -99 -28 -102 19
-110 33 -6 40 -11 40 -30 0 -22 -4 -23 -107 -27 -109 -5 -126 -1 -120 32 1 8
13 17 27 20 23 5 34 32 135 331 61 178 113 332 117 342 6 14 21 17 86 17 l80
0 30 -72z"/>
<path d="M28991 18868 c12 -29 35 -91 51 -138 17 -47 32 -87 33 -89 2 -2 40
28 84 65 44 38 77 72 73 75 -10 10 -248 139 -256 139 -3 0 4 -24 15 -52z"/>
<path d="M20568 18617 c-64 -45 -117 -84 -117 -87 -2 -12 166 -126 174 -119 6
7 66 271 63 280 -2 5 -56 -28 -120 -74z"/>
<path d="M21283 18276 c-29 -52 -53 -99 -53 -105 0 -21 79 -52 123 -49 38 3
45 8 75 52 41 61 42 103 5 138 -36 32 -75 58 -88 58 -5 0 -34 -43 -62 -94z"/>
<path d="M21140 18018 c-24 -46 -54 -100 -66 -120 l-23 -37 63 -35 c85 -48
130 -48 173 -3 64 67 80 136 43 187 -17 24 -120 90 -140 90 -3 0 -26 -37 -50
-82z"/>
<path d="M27883 18125 c3 -17 13 -82 23 -145 9 -63 20 -119 24 -123 6 -7 74
28 159 81 l25 15 -26 21 c-14 12 -67 57 -118 101 -87 74 -93 77 -87 50z"/>
<path d="M21887 17862 l-107 -107 96 -43 c53 -24 98 -41 100 -40 4 5 26 290
22 294 -2 2 -52 -45 -111 -104z"/>
<path d="M24990 17199 c-23 -73 -44 -139 -48 -147 -5 -13 9 -14 99 -8 57 4
105 9 106 10 6 6 -97 259 -110 272 -3 3 -24 -54 -47 -127z"/>
<path d="M33550 20890 c-789 -107 -1402 -738 -1489 -1532 -49 -439 88 -909
364 -1252 30 -39 54 -73 53 -76 -4 -10 -208 -192 -358 -321 -590 -504 -1221
-942 -1902 -1317 -281 -156 -976 -492 -1015 -492 -4 0 -21 37 -37 82 -111 314
-337 576 -626 726 -198 103 -368 145 -590 145 -279 0 -511 -68 -734 -217 -594
-396 -753 -1201 -355 -1796 191 -285 484 -481 834 -556 120 -26 379 -24 505 4
264 57 497 187 678 377 98 103 187 230 238 340 19 41 39 75 44 75 13 0 502
207 655 277 722 333 1498 794 2140 1272 389 290 639 499 1072 895 l71 66 69
-26 c68 -26 121 -43 201 -64 l42 -11 0 -1758 0 -1759 -52 -12 c-82 -20 -256
-83 -336 -124 -168 -85 -311 -186 -447 -316 l-90 -87 -990 554 c-544 305
-1121 628 -1281 717 l-291 163 -178 -318 c-98 -174 -178 -321 -177 -325 0 -8
296 -175 1707 -963 457 -255 834 -467 838 -471 5 -4 -3 -59 -17 -121 -37 -167
-50 -305 -43 -449 17 -342 110 -625 296 -901 254 -378 633 -629 1101 -730 92
-20 134 -23 335 -23 215 0 238 1 348 27 362 83 633 231 882 483 339 342 512
792 492 1278 -24 567 -323 1086 -799 1390 -133 84 -343 175 -490 212 l-68 16
0 1757 0 1756 128 38 c253 74 505 223 704 416 237 228 371 459 484 829 3 10
347 12 1700 10 l1696 -3 32 -81 c43 -105 96 -199 166 -293 68 -91 193 -217
260 -263 27 -18 50 -36 50 -40 0 -11 -210 -366 -339 -573 -874 -1404 -1981
-2703 -3223 -3784 -60 -51 -108 -95 -108 -97 0 -1 27 -45 60 -96 102 -157 203
-372 275 -586 5 -15 168 122 470 394 1395 1259 2578 2730 3499 4350 l97 171
92 7 c311 23 584 146 807 362 252 245 383 537 397 884 8 223 -36 429 -137 631
-179 360 -535 624 -934 694 -115 20 -337 20 -452 0 -306 -54 -601 -230 -789
-469 -103 -133 -193 -300 -220 -408 l-7 -28 -1692 0 -1691 0 -48 148 c-176
542 -572 942 -1112 1121 -177 59 -269 73 -500 76 -110 2 -229 0 -265 -5z m366
-925 c388 -68 664 -396 664 -790 0 -229 -85 -426 -252 -580 -195 -181 -453
-253 -716 -199 -94 18 -254 95 -334 158 -122 97 -234 272 -273 425 -50 198
-17 427 87 606 60 103 202 239 303 291 182 94 338 120 521 89z"/>
</g>
</svg>
